<svg width="27" height="27" viewBox="0 0 27 27" fill="none" xmlns="http://www.w3.org/2000/svg">
<path d="M13.5 0.210938C7.80073 0.210938 3.16406 4.84761 3.16406 10.5469C3.16406 13.3154 4.84138 16.8708 8.14941 21.1137C9.66498 23.0526 11.3062 24.8898 13.0626 26.6136C13.1804 26.7262 13.3371 26.789 13.5 26.789C13.6629 26.789 13.8196 26.7262 13.9374 26.6136C15.6938 24.8898 17.335 23.0526 18.8506 21.1137C22.1586 16.8708 23.8359 13.3154 23.8359 10.5469C23.8359 4.84761 19.1993 0.210938 13.5 0.210938ZM13.5 17.9297C9.42891 17.9297 6.11719 14.618 6.11719 10.5469C6.11719 6.47578 9.42891 3.16406 13.5 3.16406C17.5711 3.16406 20.8828 6.47578 20.8828 10.5469C20.8828 14.618 17.5711 17.9297 13.5 17.9297Z" fill="#B6E925"/>
<path d="M18.5663 9.65676L13.9257 5.438C13.8092 5.33211 13.6574 5.27344 13.5 5.27344C13.3426 5.27344 13.1908 5.33211 13.0744 5.438L8.43374 9.65676C8.32562 9.75507 8.25485 9.88776 8.23341 10.0323C8.21198 10.1769 8.24121 10.3244 8.31614 10.4498C8.37526 10.5453 8.45811 10.6239 8.55663 10.6779C8.65515 10.7319 8.76597 10.7594 8.87829 10.7578H9.49222V14.7656C9.49222 14.9335 9.55889 15.0944 9.67757 15.2131C9.79624 15.3318 9.9572 15.3984 10.125 15.3984H11.6016C11.7694 15.3984 11.9304 15.3318 12.0491 15.2131C12.1677 15.0944 12.2344 14.9335 12.2344 14.7656V12.4453C12.2344 12.2775 12.3011 12.1165 12.4197 11.9978C12.5384 11.8792 12.6994 11.8125 12.8672 11.8125H14.1328C14.3007 11.8125 14.4616 11.8792 14.5803 11.9978C14.699 12.1165 14.7657 12.2775 14.7657 12.4453V14.7656C14.7657 14.9335 14.8323 15.0944 14.951 15.2131C15.0697 15.3318 15.2306 15.3984 15.3985 15.3984H16.875C17.0429 15.3984 17.2038 15.3318 17.3225 15.2131C17.4412 15.0944 17.5078 14.9335 17.5078 14.7656V10.7578H18.1218C18.2341 10.7594 18.3449 10.7319 18.4434 10.6779C18.5419 10.6239 18.6248 10.5453 18.6839 10.4498C18.7588 10.3244 18.7881 10.1769 18.7666 10.0323C18.7452 9.88776 18.6744 9.75507 18.5663 9.65676Z" fill="black"/>
</svg>
