<?xml version="1.0"?>
<svg xmlns="http://www.w3.org/2000/svg" xmlns:xlink="http://www.w3.org/1999/xlink" xmlns:svgjs="http://svgjs.com/svgjs" version="1.1" width="512" height="512" x="0" y="0" viewBox="0 0 512 512" style="enable-background:new 0 0 512 512" xml:space="preserve" class=""><g><g xmlns="http://www.w3.org/2000/svg"><path d="m492 91.82h-472c-11.046 0-20 8.954-20 20v288.36c0 11.046 8.954 20 20 20h472c11.046 0 20-8.954 20-20v-288.36c0-11.046-8.954-20-20-20zm-17.47 230.91c0 8.29-6.71 15-15 15-16.53 0-29.98 13.45-29.98 29.98 0 8.29-6.71 15-15 15h-317.1c-8.29 0-15-6.71-15-15 0-16.53-13.45-29.98-29.98-29.98-8.29 0-15-6.71-15-15v-133.46c0-8.29 6.71-15 15-15 16.53 0 29.98-13.45 29.98-29.98 0-8.29 6.71-15 15-15h317.1c8.29 0 15 6.71 15 15 0 16.53 13.45 29.98 29.98 29.98 8.29 0 15 6.71 15 15z" fill="#b6e925" data-original="#000000" style="" class=""/><path d="m401.45 159.29h-290.9c-5.44 21.04-22.04 37.64-43.08 43.08v107.26c21.04 5.44 37.64 22.04 43.08 43.08h290.9c5.44-21.04 22.04-37.64 43.08-43.08v-107.26c-21.04-5.44-37.64-22.04-43.08-43.08zm-256.96 111.71h-16.49c-8.29 0-15-6.72-15-15s6.71-15 15-15h16.49c8.28 0 15 6.72 15 15s-6.72 15-15 15zm111.51 41.04c-30.9 0-56.04-25.14-56.04-56.04s25.14-56.04 56.04-56.04 56.04 25.14 56.04 56.04-25.14 56.04-56.04 56.04zm128-41.04h-16.49c-8.28 0-15-6.72-15-15s6.72-15 15-15h16.49c8.29 0 15 6.72 15 15s-6.71 15-15 15z" fill="#b6e925" data-original="#000000" style="" class=""/><circle cx="256" cy="256" r="26.04" fill="#b6e925" data-original="#000000" style="" class=""/></g></g></svg>
