<svg width="27" height="25" viewBox="0 0 27 25" fill="none" xmlns="http://www.w3.org/2000/svg">
<path d="M19.4049 24.5454C18.5333 24.5454 17.6691 24.4053 16.8241 24.1262C13.1013 22.8968 9.64575 20.8944 6.83089 18.3355C4.01603 15.7766 1.81339 12.6352 0.46107 9.25084C0.0265014 8.16322 -0.101744 7.0405 0.0800248 5.91376C0.250298 4.85835 0.7 3.83377 1.38057 2.95075C2.06414 2.06384 2.97546 1.32616 4.01598 0.817492C5.12557 0.27507 6.33668 0 7.61576 0C8.01357 0 8.35739 0.252683 8.44076 0.606276L9.76508 6.22459C9.82504 6.479 9.73903 6.74372 9.5367 6.92771L7.27379 8.98483C9.4085 12.8432 12.8724 15.9922 17.1166 17.9328L19.3795 15.8756C19.5819 15.6917 19.8731 15.6136 20.1529 15.668L26.3331 16.8719C26.7221 16.9477 27 17.2603 27 17.6219C27 18.7847 26.6974 19.8858 26.1007 20.8945C25.5412 21.8404 24.7297 22.6689 23.7541 23.2903C22.7828 23.909 21.6558 24.3178 20.4948 24.4726C20.131 24.5212 19.7672 24.5454 19.4049 24.5454ZM6.94163 1.56758C5.25445 1.7369 3.75695 2.54083 2.76253 3.83108C1.64428 5.28194 1.38352 7.06644 2.0471 8.72712C4.64703 15.2336 10.243 20.3208 17.4002 22.6844C19.2269 23.2877 21.1899 23.0506 22.7859 22.034C24.2052 21.13 25.0895 19.7686 25.2758 18.2349L20.2482 17.2555L17.8849 19.4039C17.6334 19.6325 17.2514 19.6932 16.9296 19.5558C11.91 17.412 7.84683 13.7182 5.48864 9.15497C5.33745 8.8624 5.40421 8.51504 5.65569 8.28647L8.01895 6.13807L6.94163 1.56758Z" fill="#B6E925"/>
</svg>
