<?xml version="1.0" ?><svg data-name="Layer 1" id="Layer_1" viewBox="0 0 500 500" xmlns="http://www.w3.org/2000/svg"><defs><style>.cls-1{fill:#282828;}</style></defs><title/><path class="cls-1" d="M484.85,124.74a144.18,144.18,0,0,0-2.32-25.29c-1.94-10.19-4.67-20.12-9.55-29.33A101.85,101.85,0,0,0,453.39,44a97.14,97.14,0,0,0-42.76-24.4c-14.83-4-30-4.84-45.21-4.82a.46.46,0,0,1-.09-.23H134.59c0,.08,0,.16,0,.23-8.65.16-17.32.09-25.92,1.16A123.46,123.46,0,0,0,81,22.14,97.48,97.48,0,0,0,44.25,46.26,97.14,97.14,0,0,0,19.68,89.17c-3.94,14.72-4.8,29.73-4.82,44.85L14.7,365.69v0c.28,10.45.37,21,2.13,31.36,1.87,11,4.54,21.71,9.64,31.69A101.37,101.37,0,0,0,54.77,463a91.92,91.92,0,0,0,28.31,15.35c15.12,4.88,30.72,6.75,46.55,6.84,9.88.06,19.74.31,29.62.27,71.74-.3,143.49.52,215.23-.44a169.31,169.31,0,0,0,28.23-3A95.61,95.61,0,0,0,450,459c15.78-14.08,26.43-31.3,31.24-52.09,3.15-13.59,3.93-27.38,4.07-41.21v-2.76C485.3,361.86,484.89,127.84,484.85,124.74Zm-63,217.82c-3,7-18.23,12.89-44,16.87-2.42.37-3.44,4.28-4.83,10.68-.58,2.64-1.16,5.23-2,8a4.81,4.81,0,0,1-5.09,3.81h-.4a41.22,41.22,0,0,1-7.33-.93,96.44,96.44,0,0,0-19.32-2A85.66,85.66,0,0,0,325,380.08c-9.58,1.6-17.77,7.38-26.44,13.51-12.14,8.58-25.87,18.29-46.4,18.29-1,0-1.91,0-2.62-.07s-1.14.07-1.73.07c-20.53,0-34.26-9.71-46.38-18.28-8.68-6.13-16.87-11.93-26.47-13.52a85.45,85.45,0,0,0-13.93-1.18,95.35,95.35,0,0,0-19.32,2.19,42.9,42.9,0,0,1-7.33,1.05c-2,0-4.48-.45-5.5-3.95-.81-2.76-1.39-5.43-2-8-1.41-6.43-2.43-10.36-4.83-10.73-25.75-4-41-9.83-44-16.92a6.58,6.58,0,0,1-.53-2.24A4.13,4.13,0,0,1,81,336c20.45-3.37,38.64-14.18,54.05-32.14a121.19,121.19,0,0,0,18.44-28.66l.09-.2c3-6,3.56-11.24,1.76-15.48-3.32-7.83-14.31-11.31-21.58-13.62-1.81-.57-3.52-1.11-4.88-1.65-6.45-2.55-17-7.93-15.63-15.35,1-5.41,8.19-9.18,14-9.18a9.91,9.91,0,0,1,4.23.84c6.54,3.06,12.42,4.62,17.48,4.62,6.29,0,9.33-2.4,10.07-3.08q-.29-5.15-.62-10.31c-1.48-23.5-3.32-52.74,4.16-69.51,22.39-50.19,69.86-54.1,83.87-54.1l6.94-.06c14.05,0,61.63,3.91,84,54.13,7.48,16.78,5.64,46,4.15,69.57l-.07,1.13c-.2,3.19-.39,6.22-.55,9.15.69.64,3.47,2.83,9.13,3.06,4.82-.18,10.37-1.73,16.47-4.59a13,13,0,0,1,5.39-1.07,16.32,16.32,0,0,1,6.14,1.18l.1,0c5.18,1.84,8.57,5.51,8.65,9.37.06,3.6-2.61,9-15.76,14.17-1.35.53-3.07,1.08-4.88,1.65-7.28,2.31-18.26,5.79-21.58,13.62-1.8,4.24-1.21,9.45,1.76,15.48l.09.2c.92,2.15,23.07,52.65,72.49,60.8a4.14,4.14,0,0,1,3.46,4.31A6.64,6.64,0,0,1,421.87,342.56Z"/></svg>